<svg width="23" height="23" viewBox="0 0 23 23" fill="none" xmlns="http://www.w3.org/2000/svg">
<path d="M17.4297 13.4766C17.4297 12.9804 17.0274 12.5781 16.5312 12.5781C14.3274 12.5781 8.67262 12.5781 6.46875 12.5781C5.97263 12.5781 5.57031 12.9804 5.57031 13.4766V18.3281C5.57031 18.8242 5.97263 19.2266 6.46875 19.2266H16.5312C17.0274 19.2266 17.4297 18.8242 17.4297 18.3281C17.4297 17.0572 17.4297 14.7475 17.4297 13.4766Z" fill="#BDBDBD"/>
<path d="M17.4297 18.3281C17.4297 17.4574 17.4297 14.3473 17.4297 13.4766C17.3215 14.0156 17.1776 16.5313 17.0703 17.0703V19.5858C17.0703 19.824 16.9756 20.0526 16.8073 20.221C16.6387 20.3895 16.4101 20.4842 16.1719 20.4842C17.25 20.4842 17.4297 19.2266 17.4297 18.3281Z" fill="#767576"/>
<path d="M17.6094 16.9386C17.6094 16.5151 17.2779 16.1719 16.8689 16.1719C15.599 16.1719 12.9982 15.4531 11.5 15.4531C10.0018 15.4531 7.40097 16.1719 6.13112 16.1719C5.72215 16.1719 5.39062 16.5151 5.39062 16.9386V20.4364C5.39062 20.8599 5.72215 21.2031 6.13112 21.2031C7.40097 21.2031 10.0018 20.4844 11.5 20.4844C12.9982 20.4844 15.599 21.2031 16.8689 21.2031C17.2779 21.2031 17.6094 20.8599 17.6094 20.4364C17.6094 19.336 17.6094 18.039 17.6094 16.9386Z" fill="#202020"/>
<path d="M17.1737 16.2395C17.2226 16.3417 17.25 16.4571 17.25 16.5791V20.0769C17.25 20.5004 16.9185 20.8436 16.5096 20.8436C15.2397 20.8436 12.6389 20.1249 11.1407 20.1249C9.64244 20.1249 7.04164 20.8436 5.77179 20.8436C5.66326 20.8436 5.56012 20.8194 5.46704 20.7759C5.58815 21.0291 5.84007 21.203 6.13117 21.203C7.40102 21.203 10.0018 20.4843 11.5 20.4843C12.9983 20.4843 15.5991 21.203 16.8689 21.203C17.2779 21.203 17.6094 20.8598 17.6094 20.4363C17.6094 19.3359 17.6094 18.0389 17.6094 16.9385C17.6094 16.6274 17.4306 16.3597 17.1737 16.2395Z" fill="#1B1B1B"/>
<path d="M16.7109 17.3396C16.7109 17.0915 16.5099 16.8904 16.2617 16.8904C15.406 16.8904 13.453 16.3513 11.5 16.3513C9.54698 16.3513 7.59395 16.8904 6.73828 16.8904C6.49013 16.8904 6.28906 17.0915 6.28906 17.3396V19.8554C6.28906 20.1036 6.49013 20.3046 6.73828 20.3046C7.59395 20.3046 9.54698 19.7656 11.5 19.7656C13.453 19.7656 15.406 20.3046 16.2617 20.3046C16.5099 20.3046 16.7109 20.1036 16.7109 19.8554C16.7109 19.0946 16.7109 18.1004 16.7109 17.3396Z" fill="#616262"/>
<path d="M16.7109 17.3396C16.7109 17.0915 16.5099 16.8904 16.2617 16.8904C15.406 16.8904 13.453 16.3513 11.5 16.3513C9.54698 16.3513 7.59395 16.8904 6.73828 16.8904C6.49013 16.8904 6.28906 17.0915 6.28906 17.3396V18.957C6.28906 19.2051 6.49013 19.4062 6.73828 19.4062C7.59395 19.4062 9.54698 19.0468 11.5 19.0468C13.453 19.0468 15.406 19.4062 16.2617 19.4062C16.5099 19.4062 16.7109 19.2051 16.7109 18.957C16.7109 18.1962 16.7109 18.1004 16.7109 17.3396Z" fill="#424243"/>
<path d="M10.889 16.3677C11.0304 16.8498 10.9763 17.4018 10.6953 17.8886C10.1731 18.7929 9.06375 19.1316 8.21958 18.6443C7.58726 18.2792 7.28197 17.5538 7.3878 16.8325C8.25749 16.7116 9.54567 16.4376 10.889 16.3677ZM12.1109 16.3677C11.9695 16.8498 12.0236 17.4018 12.3046 17.8886C12.8268 18.7929 13.9362 19.1316 14.7803 18.6443C15.4127 18.2792 15.7179 17.5538 15.6121 16.8325C14.7422 16.7114 13.4541 16.4376 12.1109 16.3677V16.3677Z" fill="#767576"/>
<path d="M12.848 16.4251C12.7504 16.7613 12.75 17.3045 12.9459 17.6436C13.311 18.2763 14.0869 18.5131 14.6774 18.1722C15.112 17.9212 15.3226 17.4296 15.2392 16.7761C14.5465 16.6629 13.752 16.5049 12.848 16.4251V16.4251ZM10.4218 16.4043C10.6015 16.7108 10.6092 17.3045 10.4134 17.6436C10.0483 18.2763 9.27236 18.5131 8.68191 18.1722C8.24724 17.9212 8.02066 17.3554 8.1017 16.7204C8.79439 16.6072 9.51763 16.4841 10.4218 16.4043V16.4043Z" fill="#616262"/>
<path d="M12.6297 16.4043C12.5321 16.7405 12.5704 17.1248 12.7663 17.4639C13.1314 18.0966 13.9073 18.3334 14.4977 17.9926C14.9324 17.7415 15.1462 17.2469 15.0828 16.7509C14.3903 16.6377 13.5339 16.4841 12.6297 16.4043V16.4043ZM10.3703 16.4043C10.4679 16.7405 10.4296 17.1248 10.2338 17.4639C9.86863 18.0966 9.09274 18.3334 8.50228 17.9926C8.06762 17.7415 7.85379 17.2469 7.91722 16.7509C8.60992 16.6377 9.46631 16.4841 10.3703 16.4043V16.4043Z" fill="#E0E1E0"/>
<path d="M14.7282 16.6922C14.6906 17.0788 14.4845 17.4332 14.1384 17.6332C13.7237 17.8725 13.2177 17.8269 12.8267 17.5595C13.2118 18.1196 13.9381 18.3156 14.4978 17.9926C14.9325 17.7415 15.1463 17.2469 15.0829 16.7509C14.9689 16.7322 14.8505 16.7125 14.7282 16.6922ZM10.0624 16.4345C10.1643 16.4235 10.267 16.4135 10.3704 16.4043C10.4679 16.7405 10.4297 17.1248 10.2338 17.4639C9.86868 18.0966 9.09279 18.3334 8.50233 17.9926C8.33504 17.8959 8.20046 17.7631 8.10181 17.6082C8.11528 17.6166 8.12912 17.6251 8.14296 17.6332C8.73341 17.974 9.5093 17.7372 9.87443 17.1045C9.99751 16.8914 10.0584 16.6602 10.0624 16.4345Z" fill="#BDBDBD"/>
<path d="M21.2031 14.0156C21.2031 11.2387 16.8552 8.98438 11.5 8.98438C6.14477 8.98438 1.79688 11.2387 1.79688 14.0156V6.82812C1.79688 4.05123 6.14477 1.79688 11.5 1.79688C16.8552 1.79688 21.2031 4.05123 21.2031 6.82812V14.0156Z" fill="#E0F2F1"/>
<path d="M15.9922 7.03998C14.8999 6.74331 13.6854 6.55141 12.3984 6.49013C12.1027 6.47594 11.803 6.46875 11.5 6.46875C10.433 6.46875 9.40592 6.55823 8.44531 6.72355C10.2422 4.3125 12.1551 2.875 12.7578 2.875C13.8359 2.875 14.5547 6.1976 15.9922 7.03998Z" fill="#C8E5C9"/>
<path d="M15.9922 7.03998C14.8999 6.74331 13.6854 6.55141 12.3984 6.49013C12.8026 4.69793 12.8552 4.13497 12.7578 2.875C13.8359 2.875 14.5547 6.1976 15.9922 7.03998Z" fill="#A5D5A7"/>
<path d="M12.3984 7.0292C14.0156 5.21094 16.2506 3.41406 17.0806 3.41406C19.5859 3.41406 19.9453 8.26562 20.9794 10.9609C20.0887 8.84889 16.6362 7.23134 12.3984 7.0292Z" fill="#81C785"/>
<path d="M17.9688 8.29024C17.9422 6.0862 17.9824 4.71284 17.0806 3.41406C19.586 3.41406 19.9453 8.26562 20.9794 10.9609C20.5365 9.91066 19.4602 8.98276 17.9688 8.29024Z" fill="#66BC6A"/>
<path d="M17.7891 8.20884C17.7891 8.20884 19.4062 7.54688 21.2031 7.36719V12.0391C21.2031 10.506 19.8777 9.1319 17.7891 8.20884Z" fill="#42A147"/>
<path d="M13.6562 7.72656C13.6562 6.20191 10.7812 8.44531 9.70308 7.36719C9.20283 6.86694 8.00593 7.32424 7.08234 7.6484C7.08216 6.61789 7.08162 5.66016 7.08162 5.66016V5.65548C7.08378 5.51784 7.06078 5.36996 7.00777 5.21094C6.99016 5.15793 6.97021 5.10492 6.94775 5.05209C7.04658 4.92991 7.1977 4.85156 7.36714 4.85156C7.52221 4.85156 7.66219 4.91715 7.76048 5.02227C7.83703 4.8176 8.0345 4.67188 8.26558 4.67188C8.45641 4.67188 8.62406 4.77124 8.71983 4.92092C8.798 4.87672 8.8882 4.85156 8.98433 4.85156C9.26806 4.85156 9.50093 5.07132 9.52178 5.34966C9.61737 5.26341 9.74405 5.21094 9.88277 5.21094C10.0702 5.21094 10.2353 5.30671 10.332 5.45208C10.4287 5.30671 10.5938 5.21094 10.7812 5.21094C11.0788 5.21094 11.3203 5.45244 11.3203 5.75H11.3237C11.4604 5.7509 11.5851 5.80265 11.6796 5.88746C11.7751 5.80193 11.901 5.75 12.039 5.75C12.2298 5.75 12.3975 5.84937 12.4933 5.99905C12.5714 5.95484 12.6616 5.92969 12.7578 5.92969C13.0357 5.92969 13.2647 6.14046 13.2938 6.41071C13.3509 6.39005 13.4124 6.37891 13.4765 6.37891C13.5919 6.37891 13.6988 6.4152 13.7865 6.47702C13.8853 6.36202 14.0318 6.28906 14.1953 6.28906C14.3827 6.28906 14.5478 6.38484 14.6445 6.5302C14.7412 6.38484 14.9063 6.28906 15.0937 6.28906C15.2601 6.28906 15.4091 6.36471 15.5079 6.4833C15.548 6.47378 15.5898 6.46875 15.6328 6.46875C15.7708 6.46875 15.8967 6.52068 15.9921 6.60621C16.0876 6.52068 16.2135 6.46875 16.3515 6.46875C16.5826 6.46875 16.7801 6.61448 16.8566 6.81914C16.9549 6.71402 17.0949 6.64844 17.25 6.64844C17.5475 6.64844 17.789 6.88994 17.789 7.1875H17.7924C18.0221 7.18894 18.2179 7.3343 18.2941 7.53789C18.3924 7.43277 18.5324 7.36719 18.6875 7.36719C18.936 7.36719 19.1453 7.53555 19.2077 7.7643C19.2691 7.74004 19.3361 7.72656 19.4062 7.72656C19.6899 7.72656 19.9228 7.94632 19.9437 8.22466C20.0392 8.13841 20.1659 8.08594 20.3046 8.08594C20.4957 8.08594 20.6637 8.18548 20.7593 8.33552C20.3368 9.03325 19.6287 9.66557 18.7061 10.196C18.584 10.2659 18.5085 10.396 18.5085 10.5369C18.5078 10.5371 18.5078 10.5371 18.5078 10.5371C17.2164 9.83789 15.5401 9.33135 13.6562 9.10926V7.72656Z" fill="#307D3D"/>
<path d="M19.9437 8.22466C20.0761 8.10948 20.2085 8.08594 20.3046 8.08594C20.4957 8.08594 20.6637 8.18548 20.7593 8.33552L20.7569 8.33966C20.6768 8.29258 20.5837 8.26562 20.4843 8.26562C20.3456 8.26562 20.0256 8.41872 19.93 8.50497C19.9453 8.40039 19.9453 8.34217 19.9437 8.22466V8.22466ZM19.2077 7.7643C19.2745 7.73609 19.3633 7.72656 19.4062 7.72656C19.601 7.72656 19.7717 7.83006 19.8664 7.98513C19.7846 7.935 19.6887 7.90625 19.5859 7.90625C19.5158 7.90625 19.2693 7.96662 19.2078 7.99088C19.2139 7.90625 19.2265 7.85396 19.2077 7.7643V7.7643ZM18.2941 7.53789C18.3949 7.42595 18.5495 7.36719 18.6875 7.36719C18.8822 7.36719 19.0529 7.47069 19.1478 7.62576C19.0659 7.57562 18.9699 7.54687 18.8671 7.54687C18.7121 7.54687 18.4165 7.68595 18.318 7.79089C18.3177 7.69332 18.3053 7.62145 18.2941 7.53789V7.53789ZM7.12744 5.23178C7.09725 5.26197 7.07174 5.28299 7.03886 5.31552C7.0155 5.21094 6.97021 5.10492 6.94775 5.05209C7.04658 4.92991 7.1977 4.85156 7.36714 4.85156C7.52221 4.85156 7.66219 4.91715 7.76048 5.02227C7.83703 4.8176 8.0345 4.67188 8.26558 4.67188C8.45641 4.67188 8.62406 4.77124 8.71983 4.92092C8.798 4.87672 8.8882 4.85156 8.98433 4.85156C9.17911 4.85156 9.34982 4.95506 9.44451 5.11013C9.36275 5.06 9.2668 5.03125 9.16402 5.03125C9.06789 5.03125 8.97768 5.05641 8.89952 5.10061C8.80375 4.95093 8.6361 4.85156 8.44527 4.85156C8.21419 4.85156 8.01671 4.99729 7.94017 5.20195C7.84188 5.09684 7.7019 5.03125 7.54683 5.03125C7.37739 5.03125 7.22627 5.10959 7.12744 5.23178ZM17.789 7.1875C17.9385 7.1875 18.1484 7.26908 18.2494 7.44607C18.1685 7.39666 17.8778 7.39216 17.7763 7.39163C17.7763 7.39163 17.7718 7.39486 17.7728 7.39163C17.789 7.33538 17.789 7.25704 17.789 7.1875ZM16.8566 6.81914C16.9608 6.70558 17.112 6.64844 17.25 6.64844C17.4447 6.64844 17.6154 6.75194 17.7101 6.90701C17.6286 6.85687 17.5324 6.82812 17.4296 6.82812C17.2746 6.82812 16.9759 6.93504 16.8776 7.03998C16.8773 6.95337 16.876 6.9133 16.8566 6.81914V6.81914ZM13.2938 6.41071C13.3425 6.39094 13.4239 6.37891 13.4765 6.37891C13.5919 6.37891 13.6988 6.4152 13.7865 6.47702C13.8853 6.36202 14.0318 6.28906 14.1953 6.28906C14.3827 6.28906 14.5478 6.38484 14.6445 6.5302C14.7412 6.38484 14.9063 6.28906 15.0937 6.28906C15.2601 6.28906 15.4091 6.36471 15.5079 6.4833C15.548 6.47378 15.5898 6.46875 15.6328 6.46875C15.7708 6.46875 15.8967 6.52068 15.9921 6.60621C16.0876 6.52068 16.2135 6.46875 16.3515 6.46875C16.5463 6.46875 16.717 6.57225 16.8119 6.72732C16.7301 6.67719 16.634 6.64844 16.5312 6.64844C16.3932 6.64844 16.2672 6.70037 16.1718 6.7859C16.0764 6.70037 15.9505 6.64844 15.8125 6.64844C15.7695 6.64844 15.7276 6.65347 15.6876 6.66299C15.5887 6.5444 15.4398 6.46875 15.2734 6.46875C15.086 6.46875 14.9208 6.56452 14.8242 6.70989C14.7275 6.56452 14.5624 6.46875 14.375 6.46875C14.2114 6.46875 14.065 6.5417 13.9662 6.6567C13.8785 6.59489 13.7716 6.55859 13.6562 6.55859C13.5921 6.55859 13.3292 6.60459 13.272 6.62526C13.2855 6.55392 13.2968 6.48187 13.2938 6.41071V6.41071ZM11.3203 5.75C11.5068 5.75 11.622 5.83571 11.6796 5.88746C11.7751 5.80193 11.901 5.75 12.039 5.75C12.2298 5.75 12.3975 5.84937 12.4933 5.99905C12.5714 5.95484 12.6616 5.92969 12.7578 5.92969C12.9526 5.92969 13.1233 6.03319 13.2181 6.18826C13.1364 6.13812 13.0402 6.10937 12.9375 6.10937C12.8413 6.10937 12.7511 6.13453 12.673 6.17873C12.5772 6.02905 12.4095 5.92969 12.2187 5.92969C12.0807 5.92969 11.9547 5.98162 11.8593 6.06715C11.7648 5.98234 11.4425 5.91082 11.3059 5.90992C11.3059 5.90992 11.3016 5.91334 11.3023 5.90992C11.3134 5.85548 11.3169 5.8084 11.3203 5.75ZM9.52178 5.34966C9.62043 5.25532 9.77352 5.21094 9.88277 5.21094C10.0702 5.21094 10.2353 5.30671 10.332 5.45208C10.4287 5.30671 10.5938 5.21094 10.7812 5.21094C10.976 5.21094 11.1467 5.31444 11.2414 5.46951C11.1598 5.41937 11.0637 5.39062 10.9609 5.39062C10.7735 5.39062 10.6083 5.4864 10.5117 5.63177C10.415 5.4864 10.2499 5.39062 10.0625 5.39062C9.92374 5.39062 9.59455 5.56654 9.49896 5.65279C9.52339 5.53725 9.52339 5.46268 9.52178 5.34966Z" fill="#1B5F2F"/>
<path d="M2.06012 5.66016H7.08166C7.08166 5.66016 7.08292 8.30534 7.08256 9.53566C3.94558 10.3696 1.79688 12.0635 1.79688 14.0156V6.82812C1.79688 6.42598 1.88798 6.03498 2.06012 5.66016V5.66016Z" fill="#F8AA92"/>
<path d="M13.6562 9.10926C13.2464 9.06092 12.8265 9.02606 12.3984 9.00576V7.72656H13.6562V9.10926Z" fill="#F8AA92"/>
<path d="M4.25356 3.48364C6.04882 3.71113 6.75787 4.46114 7.00781 5.21098C7.06082 5.37 7.08382 5.51788 7.08166 5.65552C7.07214 6.29467 6.52122 6.71209 5.92969 7.00785C5.21094 7.36723 4.67188 7.00785 4.67188 7.54691C4.67188 8.11509 5.39062 7.90629 6.10938 7.90629C6.82812 7.90629 8.98438 6.64848 9.70312 7.36723C10.7812 8.44535 13.6562 6.20195 13.6562 7.7266C13.6562 8.08598 13.287 8.72513 12.7059 9.02305C12.3102 8.99753 11.9081 8.98441 11.5 8.98441C6.14477 8.98441 1.79688 11.2388 1.79688 14.0157V6.82817C1.79688 5.54466 2.72568 4.37292 4.25356 3.48364Z" fill="#66BC6A"/>
<path d="M13.4164 7.23389C13.5678 7.30774 13.6562 7.45939 13.6562 7.72659C13.6562 8.08596 13.287 8.72511 12.7059 9.02303C12.4331 9.00543 12.4006 9.00578 12.2549 8.9995C12.836 8.70157 13.4766 7.90628 13.4766 7.5469C13.4766 7.41663 13.4555 7.31367 13.4164 7.23389ZM6.41377 4.31396C6.72085 4.58799 6.90395 4.89939 7.00781 5.21096C7.06082 5.36999 7.08382 5.51787 7.08166 5.65551C7.07214 6.29466 6.52122 6.71207 5.92969 7.00784C5.21094 7.36721 4.67188 7.00784 4.67188 7.5469C4.67188 7.61051 4.68086 7.66442 4.69793 7.70988C4.56927 7.65597 4.49219 7.55319 4.49219 7.36721C4.49219 6.82815 5.03125 7.18753 5.75 6.82815C6.34153 6.53239 6.89245 6.11497 6.90198 5.47582C6.90413 5.33818 6.88113 5.1903 6.82812 5.03128C6.74637 4.786 6.61555 4.54091 6.41377 4.31396V4.31396Z" fill="#42A147"/>
<path d="M14.7344 8.08594C14.7344 7.99394 14.7691 7.91002 14.826 7.84641C14.8918 7.77292 14.9874 7.72656 15.0938 7.72656C15.2594 7.72656 15.399 7.83887 15.4405 7.99124C15.454 8.04066 15.4878 8.08198 15.5336 8.1048C15.5793 8.12762 15.6326 8.12996 15.6802 8.11109C15.7212 8.09474 15.7658 8.08594 15.8125 8.08594C16.0109 8.08594 16.1719 8.24694 16.1719 8.44531C16.1719 8.5445 16.2524 8.625 16.3516 8.625C16.4507 8.625 16.5312 8.5445 16.5312 8.44531C16.5312 8.04856 16.2092 7.72656 15.8125 7.72656C15.7811 7.72656 15.75 7.72854 15.7196 7.73249C15.5962 7.51453 15.362 7.36719 15.0938 7.36719C14.8812 7.36719 14.6898 7.45973 14.5583 7.60671C14.4444 7.73393 14.375 7.90194 14.375 8.08594C14.375 8.18512 14.4555 8.26562 14.5547 8.26562C14.6539 8.26562 14.7344 8.18512 14.7344 8.08594V8.08594Z" fill="#1B5F2F"/>
<path d="M17.4297 8.98438C17.4297 8.786 17.5907 8.625 17.7891 8.625C17.8545 8.625 17.9157 8.64243 17.9686 8.67298C18.0243 8.70532 18.0929 8.70532 18.1486 8.67298C18.2014 8.64243 18.2627 8.625 18.3281 8.625C18.4845 8.625 18.6176 8.72509 18.667 8.8647C18.7001 8.95814 18.8029 9.0072 18.8965 8.97413C18.9899 8.94107 19.039 8.83829 19.0059 8.74467C18.9071 8.4658 18.6408 8.26562 18.3281 8.26562C18.2327 8.26562 18.1418 8.28431 18.0584 8.31809C17.9754 8.28431 17.8843 8.26562 17.7891 8.26562C17.3923 8.26562 17.0703 8.58763 17.0703 8.98438C17.0703 9.08356 17.1508 9.16406 17.25 9.16406C17.3492 9.16406 17.4297 9.08356 17.4297 8.98438V8.98438Z" fill="#1B5F2F"/>
<path d="M7.74715 6.52877C7.79657 6.38915 7.92972 6.28906 8.08605 6.28906C8.21111 6.28906 8.32126 6.35303 8.38558 6.45006C8.41901 6.5002 8.47507 6.5302 8.53526 6.5302C8.59546 6.5302 8.65152 6.5002 8.68494 6.45006C8.74927 6.35303 8.85942 6.28906 8.98448 6.28906C9.09086 6.28906 9.18645 6.33542 9.25222 6.40891C9.31852 6.48277 9.43208 6.48905 9.50594 6.42293C9.57997 6.3568 9.58608 6.24306 9.51995 6.16921C9.38842 6.02223 9.19705 5.92969 8.98448 5.92969C8.8145 5.92969 8.65835 5.9888 8.53526 6.08745C8.41218 5.9888 8.25603 5.92969 8.08605 5.92969C7.77339 5.92969 7.50709 6.12986 7.40826 6.40873C7.3752 6.50235 7.42426 6.60513 7.51769 6.6382C7.61131 6.67126 7.71409 6.6222 7.74715 6.52877V6.52877Z" fill="#1B5F2F"/>
<path d="M4.49219 16.8662C4.49219 16.9977 4.42031 17.1188 4.30477 17.1819C4.18923 17.2448 4.04854 17.2396 3.93785 17.1682C2.599 16.3047 1.79688 15.2084 1.79688 14.0156V6.82812C1.79688 8.08019 2.68076 9.22606 4.14252 10.1069C4.35868 10.2366 4.49093 10.4702 4.49093 10.7223C4.49219 13.0719 4.49219 14.6046 4.49219 16.8662V16.8662ZM18.5078 10.7223C18.5078 10.4699 18.6404 10.2359 18.8569 10.106C20.3192 9.22606 21.2031 8.08019 21.2031 6.82812V14.0156C21.2031 15.2084 20.401 16.3047 19.0614 17.1673C18.9513 17.2385 18.8109 17.2437 18.6958 17.1808C18.5804 17.1181 18.5087 16.9974 18.5087 16.8662C18.5078 14.768 18.5078 13.3537 18.5078 10.7223V10.7223Z" fill="#B3E0DC"/>
<path d="M18.5078 14.7344C19.2266 13.6563 19.9453 10.0625 20.125 9.73331C20.3047 9.40412 21.2031 8.80469 21.2031 8.80469V12.5781C21.2031 13.927 20.1771 14.4341 18.5078 15.3379V14.7344Z" fill="#368F43"/>
<path d="M18.5078 14.7345C19.2266 13.6563 19.9453 10.0626 20.125 9.7334C20.3694 10.3235 20.5746 12.9358 19.9033 14.3751C19.5128 14.7248 19.0435 15.048 18.5078 15.338V14.7345Z" fill="#307D3D"/>
<path d="M18.5078 15.4531C18.5078 15.1899 18.6968 14.9707 18.9463 14.9234C18.8958 14.8393 18.8672 14.7446 18.8672 14.6445C18.8672 14.2974 19.2093 14.0156 19.6309 14.0156C19.7026 14.0156 19.7721 14.0237 19.838 14.0392C19.7919 13.9515 19.7656 13.8519 19.7656 13.7461C19.7656 13.3989 20.0474 13.1172 20.3945 13.1172C20.4272 13.1172 20.4594 13.1197 20.4908 13.1246C20.4865 13.0929 20.4844 13.0604 20.4844 13.0273C20.4844 12.6802 20.7259 12.3984 21.0234 12.3984C21.0865 12.3984 21.1469 12.411 21.2031 12.4342V14.0156C21.2031 15.2084 20.401 16.3047 19.0614 17.1673C18.9513 17.2385 18.8109 17.2437 18.6958 17.1808C18.5804 17.1181 18.5087 16.9974 18.5087 16.8662C18.5078 16.3647 18.5078 15.9023 18.5078 15.4531V15.4531Z" fill="#1B5F2F"/>
<path d="M18.9463 14.9234C18.9851 14.9987 19.0641 15.1196 19.1425 15.1879C18.894 15.235 18.5094 15.5475 18.5078 15.8089C18.5078 15.6892 18.5078 15.5706 18.5078 15.4531C18.5078 15.2174 18.6792 14.9725 18.9463 14.9234ZM18.8988 14.8242C18.8783 14.7673 18.8672 14.7069 18.8672 14.6445C18.8672 14.2974 19.2093 14.0156 19.6309 14.0156C19.6787 14.0156 19.7656 14.021 19.838 14.0392C19.8963 14.1691 19.9453 14.2627 20.0314 14.375C19.9654 14.3597 19.7026 14.375 19.6309 14.375C19.2851 14.375 18.9928 14.5646 18.8988 14.8242ZM19.7917 13.9258C19.7748 13.8688 19.7656 13.8084 19.7656 13.7461C19.7656 13.3989 20.0474 13.1172 20.3945 13.1172C20.4272 13.1172 20.4594 13.1197 20.4908 13.1246C20.4865 13.0929 20.4844 13.0604 20.4844 13.0273C20.4844 12.6802 20.7259 12.3984 21.0234 12.3984C21.0865 12.3984 21.1469 12.411 21.2031 12.4342V12.7936C21.1469 12.7704 21.0865 12.7578 21.0234 12.7578C20.7259 12.7578 20.4844 13.0396 20.4844 13.3867C20.4844 13.4198 20.4865 13.4523 20.4908 13.4839C20.4594 13.4791 20.4272 13.4766 20.3945 13.4766C20.1099 13.4766 19.8691 13.6661 19.7917 13.9258Z" fill="#20562F"/>
<path d="M4.49219 16.8662C4.49219 16.9977 4.42031 17.1188 4.30477 17.1819C4.18923 17.2448 4.04854 17.2396 3.93785 17.1682C2.599 16.3047 1.79688 15.2084 1.79688 14.0156V6.82812C1.79688 8.08019 2.68076 9.22606 4.14252 10.1069C4.35868 10.2366 4.49093 10.4702 4.49093 10.7223C4.49219 13.0719 4.49219 14.6046 4.49219 16.8662V16.8662Z" fill="#42A147"/>
</svg>
